<?xml version="1.0" encoding="iso-8859-1"?>
<!-- Generator: Adobe Illustrator 19.0.0, SVG Export Plug-In . SVG Version: 6.00 Build 0)  -->
<svg version="1.1" id="Layer_1" xmlns="http://www.w3.org/2000/svg" xmlns:xlink="http://www.w3.org/1999/xlink" x="0px" y="0px"
	 viewBox="0 0 512 512" style="enable-background:new 0 0 512 512;" xml:space="preserve">
<g>
	<g>
		<path d="M345.1,293.147c-2.239-2.935-6.554-3.208-9.092-0.529l-86.488,91.25c-7.047,7.435-18.888,7.424-25.926,0l-86.383-91.141
			c-2.541-2.68-6.858-2.406-9.096,0.532c-17.433,22.904-27.799,51.466-27.799,82.405V494.14c0,9.864,7.997,17.86,17.86,17.86
			h236.949c9.864,0,17.86-7.997,17.86-17.86V375.665C372.986,344.674,362.585,316.071,345.1,293.147z"/>
	</g>
</g>
<g>
	<g>
		<path d="M371.14,117.879C362.115,51.391,304.973,0,236.056,0C160.875,0,99.721,61.154,99.721,136.335
			c0,51.558,28.764,96.517,71.087,119.682c-2.141,1.172-4.264,2.385-6.355,3.68c-3.223,1.998-3.83,6.433-1.222,9.186l68.409,72.178
			c2.348,2.478,6.294,2.478,8.642,0l68.479-72.25c2.61-2.754,2-7.193-1.226-9.189c-2.053-1.269-4.138-2.459-6.239-3.609
			c15.458-8.46,29.11-19.82,40.207-33.353h-69.727c-9.859,0-17.86-8.001-17.86-17.86c0-9.859,8.002-17.86,17.86-17.86h90.874
			c4.227-10.514,7.168-21.671,8.644-33.292c2.965,0.333,5.263,2.858,5.263,5.906v21.433c0,3.286-2.667,5.953-5.953,5.953h-7.954
			c-5.215,13.014-12.383,25.04-21.147,35.721h29.101c22.98,0,41.674-18.694,41.674-41.674v-21.433
			C412.279,136.752,393.871,118.177,371.14,117.879z"/>
	</g>
</g>
<g>
</g>
<g>
</g>
<g>
</g>
<g>
</g>
<g>
</g>
<g>
</g>
<g>
</g>
<g>
</g>
<g>
</g>
<g>
</g>
<g>
</g>
<g>
</g>
<g>
</g>
<g>
</g>
<g>
</g>
</svg>
