<?xml version="1.0" ?><svg width="6.3500002px" height="6.3500002px" viewBox="0 0 6.3500002 6.3500002" id="svg1976" version="1.1" xmlns="http://www.w3.org/2000/svg" xmlns:cc="http://creativecommons.org/ns#" xmlns:dc="http://purl.org/dc/elements/1.1/" xmlns:inkscape="http://www.inkscape.org/namespaces/inkscape" xmlns:rdf="http://www.w3.org/1999/02/22-rdf-syntax-ns#" xmlns:sodipodi="http://sodipodi.sourceforge.net/DTD/sodipodi-0.dtd" xmlns:svg="http://www.w3.org/2000/svg"><defs id="defs1970"/><g id="layer1" style="display:inline"><path d="m 0.87513983,0.92604163 c -0.4802584,0 -0.8748817925,0.39462207 -0.8748817925,0.87488207 v 2.7481528 c 0,0.4802611 0.3946233925,0.8748819 0.8748817925,0.8748819 H 5.4748603 c 0.4802585,0 0.8748817,-0.3946208 0.8748817,-0.8748819 V 1.8009237 c 0,-0.48026 -0.3946232,-0.87488207 -0.8748817,-0.87488207 z M 1.2549624,1.984375 a 0.264583,0.264583 0 0 1 0.1829329,0.06873 l 1.2774428,1.1539337 c 0.2490602,0.2251498 0.6728487,0.2251498 0.9219063,0 l 1.2769268,-1.153934 a 0.264583,0.264583 0 0 1 0.1839674,-0.068213 0.264583,0.264583 0 0 1 0.1912012,0.08785 0.264583,0.264583 0 0 1 -0.019632,0.3725873 l -0.7761817,0.7017658 0.1472777,0.1462455 0.6387227,0.63872 a 0.264583,0.264583 0 0 1 0,0.3746527 0.264583,0.264583 0 0 1 -0.3751713,0 L 4.266151,3.6679928 4.1007864,3.5015964 3.9922649,3.5997806 c -0.4586684,0.4146206 -1.173779,0.4146206 -1.632458,0 L 2.251804,3.5021123 2.0864394,3.6679928 1.4477167,4.3067129 a 0.264583,0.264583 0 0 1 -0.3751713,0 0.264583,0.264583 0 0 1 0,-0.3746527 L 1.7112681,3.2933402 1.8585458,3.1470947 1.0823641,2.4453289 A 0.264583,0.264583 0 0 1 1.062732,2.0727416 0.264583,0.264583 0 0 1 1.2549677,1.984375 Z" id="rect868" style="color:#000000;font-style:normal;font-variant:normal;font-weight:normal;font-stretch:normal;font-size:medium;line-height:normal;font-family:sans-serif;font-variant-ligatures:normal;font-variant-position:normal;font-variant-caps:normal;font-variant-numeric:normal;font-variant-alternates:normal;font-variant-east-asian:normal;font-feature-settings:normal;font-variation-settings:normal;text-indent:0;text-align:start;text-decoration:none;text-decoration-line:none;text-decoration-style:solid;text-decoration-color:#000000;letter-spacing:normal;word-spacing:normal;text-transform:none;writing-mode:lr-tb;direction:ltr;text-orientation:mixed;dominant-baseline:auto;baseline-shift:baseline;text-anchor:start;white-space:normal;shape-padding:0;shape-margin:0;inline-size:0;clip-rule:nonzero;display:inline;overflow:visible;visibility:visible;isolation:auto;mix-blend-mode:normal;color-interpolation:sRGB;color-interpolation-filters:linearRGB;solid-color:#000000;solid-opacity:1;vector-effect:none;fill:#000000;fill-opacity:1;fill-rule:nonzero;stroke:none;stroke-width:0.529167;stroke-linecap:round;stroke-linejoin:round;stroke-miterlimit:4;stroke-dasharray:none;stroke-dashoffset:0;stroke-opacity:1;paint-order:stroke fill markers;color-rendering:auto;image-rendering:auto;shape-rendering:auto;text-rendering:auto;enable-background:accumulate;stop-color:#000000"/></g></svg>