<?xml version="1.0" encoding="iso-8859-1"?>
<!-- Generator: Adobe Illustrator 16.0.0, SVG Export Plug-In . SVG Version: 6.00 Build 0)  -->
<!DOCTYPE svg PUBLIC "-//W3C//DTD SVG 1.1//EN" "http://www.w3.org/Graphics/SVG/1.1/DTD/svg11.dtd">
<svg version="1.1" id="Capa_1" xmlns="http://www.w3.org/2000/svg" xmlns:xlink="http://www.w3.org/1999/xlink" x="0px" y="0px"
	 width="576.709px" height="576.709px" viewBox="0 0 576.709 576.709" style="enable-background:new 0 0 576.709 576.709;"
	 xml:space="preserve">
<g>
	<g>
		<path d="M484.359,128.905c0,0-55.764,0-56.386,0c-24.303,0-43.743,19.44-43.743,44.719c0,1.511,0,128.263,0,128.319
			c0,10.199,8.271,18.471,18.47,18.471s18.46-8.264,18.47-18.457c0.01-0.004,0.024-112.78,0.024-112.78
			c0-1.061,0.86-1.922,1.922-1.922h3.911c1.062,0,1.922,0.861,1.922,1.922c0,0,0,316.389,0,316.428
			c0,13.152,10.662,23.814,23.815,23.814s23.815-10.662,23.815-23.814c0-0.033,0-186.182,0-186.182c0-1.357,0.626-1.922,1.97-1.922
			h3.84c1.338,0,1.97,0.568,1.97,1.922c0,0,0,186.148,0,186.182c0,13.152,10.662,23.814,23.815,23.814s23.815-10.662,23.815-23.814
			c0-0.039,0-316.428,0-316.428c0-1.062,0.86-1.922,1.922-1.922h3.911c1.062,0,1.922,0.861,1.922,1.922
			c0,0,0.015,112.775,0.023,112.779c0.01,10.193,8.272,18.457,18.471,18.457s18.47-8.271,18.47-18.471c0-0.057,0-126.808,0-128.319
			c0-25.273-19.445-44.719-43.749-44.719C532.349,128.905,499.678,128.905,484.359,128.905z"/>
		<circle cx="480.472" cy="82.799" r="35.443"/>
		<path d="M13.062,290.344c9.749,2.988,20.072-2.486,23.07-12.23c0.009,0,27.607-89.983,27.607-89.983
			c0.163-0.382,0.985-1.96,2.917-1.96c0.172,0,3.887,0,3.887,0h0.009c1.1-0.019,1.741,0.918,1.449,1.97L16.753,368.947
			c-0.296,1.057,0,2.898,1.922,2.898h38.762c1.1,0,1.903,0.889,1.903,1.988c0,0-0.01,131.725-0.01,131.771
			c0,13.152,10.663,23.814,23.815,23.814c13.153,0,23.815-10.662,23.815-23.814l0.01-131.771c0-1.1,0.889-1.984,1.984-1.984h0.033
			h3.806h0.033c1.1,0,1.984,0.891,1.984,1.984l0.009,131.771c0,13.152,10.663,23.814,23.815,23.814
			c13.153,0,23.815-10.662,23.815-23.814c0-0.047-0.009-131.771-0.009-131.771c0-1.1,0.803-1.988,1.903-1.988h38.762
			c1.922,0,2.223-1.842,1.922-2.898L149.782,188.14c-0.292-1.057,0.349-1.989,1.449-1.97h0.01c0,0,3.715,0,3.887,0
			c1.932,0,2.754,1.578,2.917,1.96c0,0,27.597,89.979,27.607,89.983c2.993,9.744,13.321,15.218,23.069,12.23
			c9.754-2.993,15.233-13.32,12.245-23.074c-0.01-0.038-27.674-90.37-27.674-90.37c-4.222-14.664-12.278-48.061-43.423-48.061H72.01
			c-29.022,0-39.297,33.392-43.519,48.061c-0.091,0.306-27.665,90.332-27.674,90.37C-2.176,277.019,3.309,287.351,13.062,290.344z"
			/>
		<circle cx="110.891" cy="82.732" r="35.443"/>
		<path d="M234.563,296.604c0,0.988,0,83.914,0,83.953c0,6.674,5.503,11.795,12.178,11.795c6.67,0,12.121-5.115,12.125-11.785
			l-0.014-73.479c0-0.693,0.545-1.258,1.238-1.258h5.221c0.693,0,1.329,0.561,1.329,1.258c0,0-0.015,206.693-0.015,206.717
			c0,8.607,6.947,15.615,15.554,15.615c8.605,0,15.553-6.928,15.553-15.533c0-0.023,0-122.223,0-122.223
			c0-0.891,0.411-1.258,1.286-1.258h5.145c0.875,0,1.344,0.373,1.344,1.258c0,0,0.019,121.922,0.019,122.223
			c0,8.605,7.024,15.533,15.63,15.533c8.606,0,15.458-7.008,15.458-15.615c0-0.023,0-206.717,0-206.717
			c0-0.693,0.564-1.258,1.258-1.258h5.303c0.692,0,1.238,0.561,1.238,1.258c0,0-0.024,73.479-0.02,73.479
			c0.005,6.67,5.522,11.785,12.192,11.785c6.675,0,12.11-5.115,12.11-11.795c0-0.039,0-82.965,0-83.953
			c0-16.535-15.543-29.659-31.446-29.659c-0.406,0-70.915,0-71.321,0C250.035,266.944,234.563,280.064,234.563,296.604z"/>
		<path d="M289.925,215.838c-7.96,4.208-13.382,12.565-13.382,22.194c0,13.861,11.236,25.097,25.096,25.097
			c13.861,0,25.097-11.236,25.097-25.097c0-8.573-4.298-16.132-10.854-20.66v-14.698l-6.766,11.394
			c-0.736-0.229-1.491-0.426-2.261-0.588v-10.806l-6.168,10.285c-0.999,0.038-1.984,0.129-2.95,0.277v-10.562L289.925,215.838z"/>
	</g>
</g>
<g>
</g>
<g>
</g>
<g>
</g>
<g>
</g>
<g>
</g>
<g>
</g>
<g>
</g>
<g>
</g>
<g>
</g>
<g>
</g>
<g>
</g>
<g>
</g>
<g>
</g>
<g>
</g>
<g>
</g>
</svg>
