<?xml version="1.0" encoding="iso-8859-1"?>
<!-- Generator: Adobe Illustrator 19.0.0, SVG Export Plug-In . SVG Version: 6.00 Build 0)  -->
<svg version="1.1" id="Layer_1" xmlns="http://www.w3.org/2000/svg" xmlns:xlink="http://www.w3.org/1999/xlink" x="0px" y="0px"
	 viewBox="0 0 512 512" style="enable-background:new 0 0 512 512;" xml:space="preserve">
<g>
	<g>
		<path d="M309.758,239.927h-17.912c-7.402,0-14.321-2.064-20.215-5.647l-15.482,4.256l-15.92-4.377
			c-5.838,3.518-12.67,5.554-19.982,5.572l-18.191,0.046c0,0,0.01,223.398,0.01,247.825c0,13.475,10.924,24.399,24.399,24.399
			c13.475,0,24.399-10.924,24.399-24.399V292.572h10.535v195.029c0,13.475,10.924,24.399,24.399,24.399s24.399-10.924,24.399-24.399
			C310.201,278.132,309.758,239.927,309.758,239.927z"/>
	</g>
</g>
<g>
	<g>
		<circle cx="256.125" cy="42.141" r="42.141"/>
	</g>
</g>
<g>
	<g>
		<path d="M388.433,192.275c-2.853-6.037-27.09-57.306-30.053-63.574c-8.898-18.824-28.102-30.987-48.923-30.987
			c-3.254,0-76.813,0-106.919,0c-20.821,0-40.024,12.163-48.923,30.987c-2.962,6.267-27.198,57.533-30.053,63.574
			c-6.327,13.385,3.366,29.023,18.382,29.023c0.017,0,0.034,0,0.051,0l78.206-0.196c11.23-0.028,20.31-9.155,20.281-20.384
			c-0.028-11.212-9.126-20.282-20.331-20.282c-0.017,0-0.034,0-0.052,0l-46.013,0.116c9.181-19.422,7.232-15.301,16.295-34.47
			c1.227-2.594,4.088-3.991,6.887-3.363c2.8,0.628,4.79,3.115,4.79,5.983v13.15l13.601-0.035c0-5.771,0-12.01,0-24.365
			c0-2.91,2.775-5.023,5.578-4.251c19.63,5.397,15.423,4.24,34.913,9.598c19.497-5.36,15.283-4.201,34.913-9.598
			c2.806-0.771,5.578,1.344,5.578,4.251c0,12.33,0,18.748,0,24.549h13.117v-13.262c0-2.914,2.02-5.438,4.864-6.076
			c2.843-0.638,5.749,0.78,6.994,3.415c9.138,19.331,7.155,15.135,16.333,34.551h-46.103c-11.23,0-20.334,9.104-20.334,20.334
			c0,11.23,9.104,20.334,20.334,20.334h78.204C384.946,221.298,394.806,205.756,388.433,192.275z"/>
	</g>
</g>
<g>
</g>
<g>
</g>
<g>
</g>
<g>
</g>
<g>
</g>
<g>
</g>
<g>
</g>
<g>
</g>
<g>
</g>
<g>
</g>
<g>
</g>
<g>
</g>
<g>
</g>
<g>
</g>
<g>
</g>
</svg>
